# xmcd
#
# Track frame offsets: 
#        150
#        15122
#        28747
#        41967
#        58920
#        74342
#
# Disc length: 1213 seconds
#
# Revision: 0
# Processed by: cddbd v1.5.2PL0 Copyright (c) Steve Scherf et al.
# Submitted via: ExactAudioCopy v0.99pb5
#
DISCID=4d04bb06
DTITLE=Various Artist - Craig Electronics Colledtion
DYEAR=1900
DGENRE=Country
TTITLE0=Born Country Alabama
TTITLE1=Except for Mondat Lorrie Morgan
TTITLE2=My Blue Angle Arron Tipps
TTITLE3=Money In The Bank John Anderson
TTITLE4=When She Cries REstless Heart
TTITLE5=I Want To Be Loved Like That Shenandoah
EXTD=
EXTT0=
EXTT1=
EXTT2=
EXTT3=
EXTT4=
EXTT5=
PLAYORDER=
